<?xml version="1.0" encoding="UTF-8" standalone="no"?>
<svg xmlns:rdf="http://www.w3.org/1999/02/22-rdf-syntax-ns#" xmlns="http://www.w3.org/2000/svg" version="1.1" xmlns:cc="http://creativecommons.org/ns#" xmlns:dc="http://purl.org/dc/elements/1.1/" viewBox="0 0 360 360" width="360" height="360">
 <defs>
  <linearGradient id="a" y2="873.79" gradientUnits="userSpaceOnUse" y1="902.36" x2="247.86" x1="199.29">
   <stop stop-color="#6c8894" offset="0"/>
   <stop stop-color="#647a88" offset="1"/>
  </linearGradient>
 </defs>
 <g style="fill-rule:evenodd" transform="translate(-38.136 -687.78)">
  <path style="fill:#fe4542" d="m217.18 754.11c27.778 8.2306-132.28 87.475-136.12 64.524-.60908-13.822 144.19-98.541 256.07-100.13-8.2947 74.442-6.8694 147.83.99746 218.91-2.6427-31.852-41.759-21.989-49.485-24.958l-65.65-156.32c-2.8909-2.4435-3.5206-1.3862-5.8084-2.0203z"/>
  <path style="fill:url(#a)" d="m78.214 820.22c7.1104-31.823 186.91-104.71 261.43-103.75-3.1802 47.604-7.4316 89.323-4.101 123.4 4.1707 42.669 10.353 75.502 11.601 97.138.48662 7.1906-5.8814 15.929-8.5281 18.701-8.4526-56.978-12.961-125.36-1.6505-236.92-92.734 2.6856-257.22 81.867-254.32 100.36 7.0957 16.237 163.99-59.453 133.43-65.007 4.9316-1.0251 6.2857.87674 7.5981 2.8128l80.259 191.47c12.15 44.96-86.69 102.27-126.43 60.37z"/>
 </g>
</svg>
